<?xml version="1.0" encoding="UTF-8" standalone="no"?>
<svg width="85px" height="170px" viewBox="0 0 85 170" version="1.1" xmlns="http://www.w3.org/2000/svg" xmlns:xlink="http://www.w3.org/1999/xlink" xmlns:sketch="http://www.bohemiancoding.com/sketch/ns">
    <!-- Generator: Sketch 3.0.1 (7597) - http://www.bohemiancoding.com/sketch -->
    <title>apartment-icon</title>
    <description>Created with Sketch.</description>
    <defs></defs>
    <g id="Bonjour" stroke="none" stroke-width="1" fill="none" fill-rule="evenodd" sketch:type="MSPage">
        <g id="Desktop" sketch:type="MSArtboardGroup" transform="translate(-195.000000, -5684.000000)">
            <g id="Manhattan-Facts" sketch:type="MSLayerGroup" transform="translate(0.000000, 5542.000000)">
                <g id="Business-Going-Strong" transform="translate(108.000000, 97.000000)" sketch:type="MSShapeGroup">
                    <g id="apartment-icon" transform="translate(87.000000, 45.000000)">
                        <path d="M0,34 L85,34 L85,153 L0,153 L0,34 Z" id="Fill-1" fill="#3B4250"></path>
                        <path d="M0,102 L85,102 L85,111 L0,111 L0,102 Z" id="Fill-2" fill="#242C3C"></path>
                        <path d="M0,119 L85,119 L85,128 L0,128 L0,119 Z" id="Fill-3" fill="#242C3C"></path>
                        <path d="M0,136 L85,136 L85,145 L0,145 L0,136 Z" id="Fill-4" fill="#242C3C"></path>
                        <path d="M0,85 L85,85 L85,94 L0,94 L0,85 Z" id="Fill-5" fill="#242C3C"></path>
                        <path d="M0,68 L85,68 L85,77 L0,77 L0,68 Z" id="Fill-6" fill="#242C3C"></path>
                        <path d="M0,51 L85,51 L85,60 L0,60 L0,51 Z" id="Fill-7" fill="#242C3C"></path>
                        <path d="M0,34 L85,34 L85,43 L0,43 L0,34 Z" id="Fill-8" fill="#242C3C"></path>
                        <path d="M17,17 L59,17 L59,34 L17,34 L17,17 Z" id="Fill-9" fill="#3B4250"></path>
                        <path d="M51,17 L68,17 L68,34 L51,34 L51,17 Z" id="Fill-10" fill="#242C3C"></path>
                        <path d="M0,153 L51,153 L51,170 L0,170 L0,153 Z" id="Fill-11" fill="#3B4250"></path>
                        <path d="M51,153 L85,153 L85,170 L51,170 L51,153 Z" id="Fill-12" fill="#242C3C"></path>
                        <path d="M21,157 L30,157 L30,170 L21,170 L21,157 Z" id="Fill-13" fill="#242C3C"></path>
                        <path d="M50,0 L53,0 L53,17 L50,17 L50,0 Z" id="Fill-14" fill="#242C3C"></path>
                        <path d="M46,17.5 C46,19.985125 43.9856875,22 41.5,22 C39.0143125,22 37,19.985125 37,17.5 C37,15.014875 39.0143125,13 41.5,13 C43.9856875,13 46,15.014875 46,17.5" id="Fill-15" fill="#242C3C"></path>
                    </g>
                </g>
            </g>
        </g>
    </g>
</svg>