<?xml version="1.0" encoding="UTF-8" standalone="no"?>
<svg width="88px" height="120px" viewBox="0 0 88 120" version="1.1" xmlns="http://www.w3.org/2000/svg" xmlns:xlink="http://www.w3.org/1999/xlink" xmlns:sketch="http://www.bohemiancoding.com/sketch/ns">
    <!-- Generator: Sketch 3.0.1 (7597) - http://www.bohemiancoding.com/sketch -->
    <title>Bank-Bag-Icon</title>
    <description>Created with Sketch.</description>
    <defs></defs>
    <g id="Bonjour" stroke="none" stroke-width="1" fill="none" fill-rule="evenodd" sketch:type="MSPage">
        <g id="Desktop" sketch:type="MSArtboardGroup" transform="translate(-193.000000, -4025.000000)">
            <g id="San-Fransisco-Facts" sketch:type="MSLayerGroup" transform="translate(1.000000, 3858.000000)">
                <g id="Business-Going-Strong" transform="translate(108.000000, 97.000000)" sketch:type="MSShapeGroup">
                    <g id="Bank-Bag-Icon" transform="translate(84.000000, 70.000000)">
                        <path d="M38.4537597,0 C35.788145,0 33.5613593,1.85592437 33.0126934,4.3356284 C32.4629913,1.85592437 30.2372418,0 27.5716271,0 C24.4946424,0 22,2.474052 22,5.52615353 L22,10.9808858 L22.0031086,10.9808858 C22.0362669,11.4700442 22.4533358,14.5093002 27.5716271,19.0576508 C33.1717495,24.0345288 32.999741,26.9967115 32.999741,26.9967115 L33.0007771,26.9967115 C25.2484751,31.0538485 15.4802534,37.0922824 11.0007771,43.6363169 C2.18171114,56.5157743 0.244024209,102.320419 0.0233144149,108.416915 C0.00932576596,108.639914 0,108.864968 0,109.091049 C0,115.116124 4.92504062,120 11.0007771,120 L44,120 L44,5.00822115 C43.73577,2.19915733 41.354073,0 38.4537597,0" id="Fill-2" fill="#D8D8DA"></path>
                        <path d="M87.9766856,108.416915 C87.7549396,102.320419 85.8172527,56.5157743 76.9992229,43.6363169 C72.5187104,37.0922824 62.7515249,31.0538485 54.9992229,26.9967115 L55.0126934,26.9967115 C55.0126934,26.9967115 54.8406848,24.0345288 60.4402892,19.0576508 C66.0404117,14.0812866 66.0119163,10.9094646 66.0119163,10.9094646 L66,10.9094646 L66,6.77062995 C66.0932577,6.37036276 66.1435132,5.95416709 66.1435132,5.52615353 C66.1435132,2.474052 63.6493889,0 60.5708499,0 C57.8228575,0 55.5395992,1.97513102 55.084709,4.57198644 C54.6282646,1.97513102 52.3460424,0 49.5970139,0 C46.5195111,0 44.0253868,2.474052 44.0253868,5.52615353 C44.0253868,5.35145412 44.016061,5.17880999 44,5.00822115 L44,120 L76.9992229,120 C83.0739232,120 88,115.116124 88,109.091049 C88,108.864968 87.989638,108.639914 87.9766856,108.416915" id="Fill-3" fill="#D8D8DA"></path>
                        <path d="M54.947287,29 L33.052713,29 C31.9183325,29 31,28.1047476 31,27.0005024 C31,25.8957548 31.9183325,25 33.052713,25 L54.947287,25 C56.0806362,25 57,25.8957548 57,27.0005024 C57,28.1047476 56.0806362,29 54.947287,29" id="Fill-4" fill="#242C3C"></path>
                        <path d="M66,79 C66,91.1499188 56.1509549,101 44,101 C31.8511174,101 22,91.1499188 22,79 C22,66.8495631 31.8511174,57 44,57 C56.1509549,57 66,66.8495631 66,79" id="Fill-5" fill="#E36A5C"></path>
                        <path d="M46.0727568,92 L35.5310639,92 L35.5310639,86.8734308 L46.0727568,86.8734308 C47.6535277,86.8734308 48.9393976,85.570153 48.9393976,83.9681001 C48.9393976,82.3670775 47.6535277,81.0632846 46.0727568,81.0632846 L40.9282601,81.0632846 C36.5571159,81.0632846 33,77.4604686 33,73.0318999 C33,68.602816 36.5571159,65 40.9282601,65 L51.469953,65 L51.469953,70.1265692 L40.9282601,70.1265692 C39.3464723,70.1265692 38.0606024,71.429847 38.0606024,73.0318999 C38.0606024,74.6334376 39.3464723,75.9367154 40.9282601,75.9367154 L46.0727568,75.9367154 C50.443901,75.9367154 54,79.5395314 54,83.9681001 C54,88.397184 50.443901,92 46.0727568,92" id="Fill-6" fill="#FFFFFF"></path>
                        <path d="M43,62 L45,62 L45,95 L43,95 L43,62 Z" id="Fill-7" fill="#FFFFFF"></path>
                    </g>
                </g>
            </g>
        </g>
    </g>
</svg>