<?xml version="1.0" encoding="UTF-8" standalone="no"?>
<svg width="86px" height="108px" viewBox="0 0 86 108" version="1.1" xmlns="http://www.w3.org/2000/svg" xmlns:xlink="http://www.w3.org/1999/xlink" xmlns:sketch="http://www.bohemiancoding.com/sketch/ns">
    <!-- Generator: Sketch 3.0.1 (7597) - http://www.bohemiancoding.com/sketch -->
    <title>big-apple-icon</title>
    <description>Created with Sketch.</description>
    <defs></defs>
    <g id="Bonjour" stroke="none" stroke-width="1" fill="none" fill-rule="evenodd" sketch:type="MSPage">
        <g id="Desktop" sketch:type="MSArtboardGroup" transform="translate(-196.000000, -6345.000000)">
            <g id="Manhattan-Facts" sketch:type="MSLayerGroup" transform="translate(0.000000, 5542.000000)">
                <g id="The-Most-College-Deg-+-This-could-have-some-2" transform="translate(109.000000, 727.000000)" sketch:type="MSShapeGroup">
                    <g id="big-apple-icon" transform="translate(87.000000, 76.000000)">
                        <path d="M11,94 L11.008,94.006 C11.006,94.004 11.003,94.002 11.001,94 L11,94" id="Fill-1" fill="#D89938"></path>
                        <path d="M34,9 L45,20.0065316 L41.4746505,27 L34,9" id="Fill-2" fill="#D89938"></path>
                        <path d="M43,28.3754107 C24.4116375,14.4697697 0,21.8711332 0,64.9361041 C0,64.9361041 0,108 43,108 C86,108 86,64.9361041 86,64.9361041 C86,21.8711332 61.5883625,14.4697697 43,28.3754107" id="Fill-3" fill="#E36A5C"></path>
                        <path d="M22.3284946,20.9726256 C28.9222663,27.3541556 37.1590261,30.5182627 43.9284426,29.9307333 C44.5355627,23.3797541 41.26486,15.4093081 34.6710883,9.02777815 C28.0773166,2.64677603 19.8411022,-0.51785896 13.0716857,0.0691425589 C12.4640201,6.62012174 15.7341774,14.5910956 22.3284946,20.9726256" id="Fill-4" fill="#2F4250"></path>
                        <path d="M43.1428571,32 C41.9594643,32 41,31.0405357 41,29.8571429 C41,14.4966071 53.4966071,2 68.8571429,2 C70.0405357,2 71,2.95946429 71,4.14285714 C71,5.32625 70.0405357,6.28571429 68.8571429,6.28571429 C55.8596429,6.28571429 45.2857143,16.8596429 45.2857143,29.8571429 C45.2857143,31.0405357 44.32625,32 43.1428571,32" id="Fill-5" fill="#242C3C"></path>
                        <path d="M30,44.5 C30,49.1946563 26.1946563,53 21.5,53 C16.8053438,53 13,49.1946563 13,44.5 C13,39.8053437 16.8053438,36 21.5,36 C26.1946563,36 30,39.8053437 30,44.5" id="Fill-6" fill="#FFFFFF"></path>
                    </g>
                </g>
            </g>
        </g>
    </g>
</svg>