<?xml version="1.0" encoding="UTF-8" standalone="no"?>
<svg width="83px" height="118px" viewBox="0 0 83 118" version="1.1" xmlns="http://www.w3.org/2000/svg" xmlns:xlink="http://www.w3.org/1999/xlink" xmlns:sketch="http://www.bohemiancoding.com/sketch/ns">
    <!-- Generator: Sketch 3.0.1 (7597) - http://www.bohemiancoding.com/sketch -->
    <title>Coffe-Cup-Icon</title>
    <description>Created with Sketch.</description>
    <defs></defs>
    <g id="Bonjour" stroke="none" stroke-width="1" fill="none" fill-rule="evenodd" sketch:type="MSPage">
        <g id="Desktop" sketch:type="MSArtboardGroup" transform="translate(-718.000000, -2656.000000)">
            <g id="Seattle-Facts" sketch:type="MSLayerGroup" transform="translate(0.000000, 2170.000000)">
                <g id="The-Orginal-Starbuck-+-Did-you-know-that-on-+-Coffe-Cup-Icon" transform="translate(118.000000, 413.000000)" sketch:type="MSShapeGroup">
                    <g id="Coffe-Cup-Icon" transform="translate(600.000000, 73.000000)">
                        <path d="M0,16 L83,16 L83,21 L0,21 L0,16 Z" id="Fill-2" fill="#D8D8DA"></path>
                        <path d="M10,0 L73,0 L73,5 L10,5 L10,0 Z" id="Fill-3" fill="#D8D8DA"></path>
                        <path d="M81,17 L3,17 L7.875,2 L76.125,2 L81,17" id="Fill-4" fill="#D8D8DA"></path>
                        <path d="M3,21 L4.95,40 L52.1354778,40 L79.05,40 L81,21" id="Fill-5" fill="#D8D8DA"></path>
                        <path d="M11.9375,118 L70.0625,118 L72,99 L10,99 L11.9375,118" id="Fill-6" fill="#D8D8DA"></path>
                        <path d="M5,40 L10.8421053,100 L73.1578947,100 L79,40 L5,40" id="Fill-7" fill="#3B4250"></path>
                        <path d="M41.5,89 C30.7305156,89 22,80.2694844 22,69.5 C22,58.7305156 30.7305156,50 41.5,50 C52.2694844,50 61,58.7305156 61,69.5 C61,80.2694844 52.2694844,89 41.5,89 Z" id="Fill-8" fill="#D8D8DA"></path>
                    </g>
                </g>
            </g>
        </g>
    </g>
</svg>