<?xml version="1.0" encoding="UTF-8" standalone="no"?>
<svg width="25px" height="23px" viewBox="0 0 25 23" version="1.1" xmlns="http://www.w3.org/2000/svg" xmlns:xlink="http://www.w3.org/1999/xlink" xmlns:sketch="http://www.bohemiancoding.com/sketch/ns">
    <!-- Generator: Sketch 3.0.1 (7597) - http://www.bohemiancoding.com/sketch -->
    <title>Imported Layers</title>
    <description>Created with Sketch.</description>
    <defs></defs>
    <g id="Bonjour" stroke="none" stroke-width="1" fill="none" fill-rule="evenodd" sketch:type="MSPage">
        <g id="Desktop" sketch:type="MSArtboardGroup" transform="translate(-881.000000, -7596.000000)" fill="#161614">
            <g id="Profile-Footer" sketch:type="MSLayerGroup" transform="translate(0.000000, 7432.000000)">
                <g id="Social-Icons" transform="translate(729.000000, 164.000000)" sketch:type="MSShapeGroup">
                    <path d="M164.498849,0 C157.597164,0 152,5.27914218 152,11.7917491 C152,17.0006764 155.581295,21.4205917 160.548451,22.9797954 C161.173854,23.088375 161.401762,22.7242713 161.401762,22.4115619 C161.401762,22.1314264 161.391019,21.3901894 161.38488,20.4064579 C157.907947,21.1187403 157.174345,18.8255383 157.174345,18.8255383 C156.605728,17.4632257 155.786181,17.1005697 155.786181,17.1005697 C154.651248,16.3687429 155.872126,16.3839441 155.872126,16.3839441 C157.126769,16.4671885 157.786703,17.5993122 157.786703,17.5993122 C158.902453,19.4010104 160.712668,18.880552 161.424783,18.5787006 C161.538353,17.8164715 161.861414,17.2974608 162.218239,17.0021242 C159.442678,16.7046159 156.524387,15.6933776 156.524387,11.1750167 C156.524387,9.88726218 157.011664,8.83476352 157.811259,8.0102821 C157.683109,7.71205002 157.254151,6.51333078 157.934037,4.89042706 C157.934037,4.89042706 158.983793,4.57265065 161.371067,6.09855654 C162.368642,5.83724154 163.437582,5.7062221 164.500384,5.70187892 C165.562418,5.7062221 166.631358,5.83724154 167.630467,6.09855654 C170.016207,4.57265065 171.064428,4.89042706 171.064428,4.89042706 C171.745849,6.51333078 171.316891,7.71205002 171.188741,8.0102821 C171.989871,8.83476352 172.473311,9.88726218 172.473311,11.1750167 C172.473311,15.7042355 169.551183,16.7009966 166.766414,16.9934378 C167.215323,17.3575415 167.614353,18.0770626 167.614353,19.1766125 C167.614353,20.7531889 167.599773,22.0250184 167.599773,22.4115619 C167.599773,22.7271667 167.824611,23.0934421 168.459222,22.9783476 C173.421775,21.4162485 177,16.9999526 177,11.7917491 C177,5.27914218 171.402836,0 164.498849,0" id="Imported-Layers"></path>
                </g>
            </g>
        </g>
    </g>
</svg>