<?xml version="1.0" encoding="UTF-8" standalone="no"?>
<svg width="108px" height="108px" viewBox="0 0 108 108" version="1.1" xmlns="http://www.w3.org/2000/svg" xmlns:xlink="http://www.w3.org/1999/xlink" xmlns:sketch="http://www.bohemiancoding.com/sketch/ns">
    <!-- Generator: Sketch 3.0.1 (7597) - http://www.bohemiancoding.com/sketch -->
    <title>Gold Coins</title>
    <description>Created with Sketch.</description>
    <defs></defs>
    <g id="Bonjour" stroke="none" stroke-width="1" fill="none" fill-rule="evenodd" sketch:type="MSPage">
        <g id="Desktop" sketch:type="MSArtboardGroup" transform="translate(-702.000000, -4346.000000)">
            <g id="San-Fransisco-Facts" sketch:type="MSLayerGroup" transform="translate(-4.000000, 3858.000000)">
                <g id="The-Orginal-Starbuck-+-Did-you-know-that-on-+-Coffe-Cup-Icon" transform="translate(118.000000, 412.000000)" sketch:type="MSShapeGroup">
                    <g id="Gold-Coins" transform="translate(588.000000, 76.000000)">
                        <path d="M47,77 L108,77 L108,93 L47,93 L47,77 Z" id="Fill-1" fill="#F4C47A"></path>
                        <path d="M38,61 L99,61 L99,77 L38,77 L38,61 Z" id="Fill-2" fill="#F2BB64"></path>
                        <path d="M42,31 L103,31 L103,47 L42,47 L42,31 Z" id="Fill-3" fill="#F2BB64"></path>
                        <path d="M44,16 L105,16 L105,32 L44,32 L44,16 Z" id="Fill-4" fill="#F0B14E"></path>
                        <path d="M41,0 L102,0 L102,16 L41,16 L41,0 Z" id="Fill-5" fill="#F4C47A"></path>
                        <path d="M37,47 L98,47 L98,63 L37,63 L37,47 Z" id="Fill-6" fill="#F7CE90"></path>
                        <path d="M38.6483659,76 L31,83.5553352 L31,93 L46.2960626,93 L46.2960626,77.8893296 L80,77.8893296 L38.6483659,77.8893296 L38.6483659,76" id="Fill-7" fill="#CACCD0"></path>
                        <path d="M58.0003169,56 L52,63 L64,63 L58.0003169,56" id="Fill-10" fill="#C4AA83"></path>
                        <path d="M67,77.4996664 C67,94.3447374 53.3445881,108 36.5006672,108 C19.6554119,108 6,94.3447374 6,77.4996664 C6,60.6552626 19.6554119,47 36.5006672,47 C53.3445881,47 67,60.6552626 67,77.4996664" id="Fill-11" fill="#EEA738"></path>
                        <path d="M61,77.4996664 C61,94.3447374 47.3448868,108 30.5,108 C13.6564476,108 0,94.3447374 0,77.4996664 C0,60.6552626 13.6564476,47 30.5,47 C47.3448868,47 61,60.6552626 61,77.4996664" id="Fill-12" fill="#F4C47A"></path>
                        <path d="M54,77.4996573 C54,90.4787884 43.478635,101 30.5,101 C17.5206796,101 7,90.4787884 7,77.4996573 C7,64.5212116 17.5206796,54 30.5,54 C43.478635,54 54,64.5212116 54,77.4996573" id="Fill-13" fill="#EEA738"></path>
                        <path d="M54,76.9996581 C54,88.5982191 44.5972292,98 32.9996581,98 C21.4014033,98 12,88.5982191 12,76.9996581 C12,65.4017809 21.4014033,56 32.9996581,56 C44.5972292,56 54,65.4017809 54,76.9996581" id="Fill-14" fill="#F4C47A"></path>
                    </g>
                </g>
            </g>
        </g>
    </g>
</svg>