<?xml version="1.0" encoding="UTF-8" standalone="no"?>
<svg width="23px" height="22px" viewBox="0 0 23 22" version="1.1" xmlns="http://www.w3.org/2000/svg" xmlns:xlink="http://www.w3.org/1999/xlink" xmlns:sketch="http://www.bohemiancoding.com/sketch/ns">
    <!-- Generator: Sketch 3.0.1 (7597) - http://www.bohemiancoding.com/sketch -->
    <title>Google_Plus_Button 2</title>
    <description>Created with Sketch.</description>
    <defs></defs>
    <g id="Bonjour" stroke="none" stroke-width="1" fill="none" fill-rule="evenodd" sketch:type="MSPage">
        <g id="Desktop" sketch:type="MSArtboardGroup" transform="translate(-937.000000, -855.000000)" fill="#000000">
            <g id="Nav" sketch:type="MSLayerGroup" transform="translate(0.000000, 829.000000)">
                <path d="M938.211804,31.48575 C938.211804,33.35275 938.847529,34.7005 940.101137,35.4925 C941.127373,36.141 942.319039,36.238 942.937941,36.238 C943.088333,36.238 943.208902,36.23225 943.29302,36.227 C943.29302,36.227 943.096235,37.48075 944.044725,38.72225 L944.001902,38.72175 C942.359059,38.72175 937,39.0585 937,43.379 C937,47.77525 941.921902,47.9985 942.909137,47.9985 C942.986373,47.9985 943.03149,47.997 943.03149,47.997 C943.042451,47.99725 943.113314,48 943.233118,48 C943.867059,48 945.504804,47.92175 947.025804,47.19675 C948.998745,46.25725 950,44.6235 950,42.3405 C950,40.13425 948.475176,38.82125 947.36202,37.8615 C946.682196,37.277 946.095412,36.77175 946.095412,36.281 C946.095412,35.78075 946.523902,35.40475 947.066078,34.9285 C947.944471,34.158 948.771882,33.062 948.771882,30.98975 C948.771882,29.16775 948.531,27.94525 947.047216,27.16925 C947.202196,27.09175 947.748706,27.035 948.019667,26.9985 C948.823627,26.89075 950,26.7685 950,26.1245 L950,26 L944.138784,26 C944.080157,26.0015 938.211804,26.21475 938.211804,31.48575 L938.211804,31.48575 Z M947.99431,42.8367284 C948.104947,44.5549362 946.592237,45.8222183 944.321412,45.9827049 C942.01463,46.146367 940.115445,45.1375245 940.005059,43.4220036 C939.951501,42.5978306 940.324649,41.7892909 941.055105,41.1463675 C941.796122,40.4944061 942.813228,40.0923347 943.919598,40.0131907 C944.050351,40.0051297 944.179847,40 944.309091,40 C946.443883,40 947.889708,41.2189163 947.99431,42.8367284 L947.99431,42.8367284 Z M946.804211,30.6371935 C947.42973,32.5576611 946.485351,34.5657526 944.980332,34.9358553 C944.807594,34.978215 944.628478,35 944.447421,35 C943.068837,35 941.702454,33.7822193 941.196714,32.1050175 C940.9139,31.1626958 940.936636,30.3389813 941.261041,29.546976 C941.579901,28.7677997 942.152462,28.2415713 942.873362,28.0646288 C943.046656,28.021785 943.226326,28 943.406829,28 C945.071277,28 946.141537,28.6024759 946.804211,30.6371935 L946.804211,30.6371935 Z M956.202532,34.7974684 L956.202532,31 L953.797468,31 L953.797468,34.7974684 L950,34.7974684 L950,37.2025316 L953.797468,37.2025316 L953.797468,41 L956.202532,41 L956.202532,37.2025316 L960,37.2025316 L960,34.7974684 L956.202532,34.7974684 L956.202532,34.7974684 Z" id="Google_Plus_Button-2" sketch:type="MSShapeGroup"></path>
            </g>
        </g>
    </g>
</svg>