<?xml version="1.0" encoding="UTF-8" standalone="no"?>
<svg width="98px" height="137px" viewBox="0 0 98 137" version="1.1" xmlns="http://www.w3.org/2000/svg" xmlns:xlink="http://www.w3.org/1999/xlink" xmlns:sketch="http://www.bohemiancoding.com/sketch/ns">
    <!-- Generator: Sketch 3.0.1 (7597) - http://www.bohemiancoding.com/sketch -->
    <title>Graded-Paper-Icon</title>
    <description>Created with Sketch.</description>
    <defs></defs>
    <g id="Bonjour" stroke="none" stroke-width="1" fill="none" fill-rule="evenodd" sketch:type="MSPage">
        <g id="Desktop" sketch:type="MSArtboardGroup" transform="translate(-188.000000, -2328.000000)">
            <g id="Seattle-Facts" sketch:type="MSLayerGroup" transform="translate(0.000000, 2170.000000)">
                <g id="The-Most-College-Deg-+-This-could-have-some" transform="translate(108.000000, 97.000000)" sketch:type="MSShapeGroup">
                    <g id="Graded-Paper-Icon" transform="translate(80.000000, 61.000000)">
                        <path d="M78.4,0 L0,0 L0,137 L98,137 L98,19.5714286 L78.4,19.5714286 L78.4,0 L49,1.6232552e-07" id="Fill-2" fill="#D8D8DA"></path>
                        <path d="M78,20 L98,20 L78,0 L78,20" id="Fill-3" fill="#C2C3C6"></path>
                        <path d="M29,34 L88,34 L88,39 L29,39 L29,34 Z" id="Fill-4" fill="#242C3C"></path>
                        <path d="M29,43 L67,43 L67,48 L29,48 L29,43 Z" id="Fill-5" fill="#242C3C"></path>
                        <path d="M29,63 L88,63 L88,68 L29,68 L29,63 Z" id="Fill-6" fill="#242C3C"></path>
                        <path d="M29,94 L88,94 L88,99 L29,99 L29,94 Z" id="Fill-7" fill="#242C3C"></path>
                        <path d="M29,103 L59,103 L59,108 L29,108 L29,103 Z" id="Fill-8" fill="#242C3C"></path>
                        <path d="M29,74 L43,74 L43,79 L29,79 L29,74 Z" id="Fill-9" fill="#242C3C"></path>
                        <path d="M11,34 L20,34 L20,43 L11,43 L11,34 Z" id="Fill-10" fill="#242C3C"></path>
                        <path d="M11,63 L20,63 L20,72 L11,72 L11,63 Z" id="Fill-11" fill="#242C3C"></path>
                        <path d="M11,94 L20,94 L20,103 L11,103 L11,94 Z" id="Fill-12" fill="#242C3C"></path>
                        <path d="M72.9700381,122.957925 C74.3556671,119.069864 74.7613478,114.944494 75.5560293,110.908421 C74.648758,111.029521 73.7408911,111.151233 72.8336198,111.272946 C74.7679007,114.491284 75.0931601,118.357939 76.0659598,121.936521 C76.5818475,123.833152 79.4555681,123.027038 78.9378933,121.124292 C77.8912251,117.272316 77.4891187,113.196487 75.4059095,109.729831 C74.7702835,108.67173 72.9503796,108.73962 72.6835001,110.094356 C71.8894143,114.131041 71.4831379,118.257022 70.0981047,122.145695 C69.4362673,124.001347 72.315945,124.794617 72.9700381,122.957925" id="Fill-13" fill="#E36A5C"></path>
                        <path d="M70.8075711,120.90297 C73.0007962,120.106972 75.235729,119.218445 77.5749309,118.975256 C79.4654779,118.778926 79.4845442,115.81084 77.5749309,116.009543 C74.9372216,116.283575 72.4919632,117.144225 70.015722,118.042836 C68.2258692,118.692327 68.998056,121.559579 70.8075711,120.90297" id="Fill-14" fill="#E36A5C"></path>
                        <path d="M68.6690152,110.540016 C62.9226588,113.119628 61.4376247,121.747612 64.7060532,126.894744 C67.9486444,132.001777 74.928428,131.824839 79.5773109,129.185398 C85.1840223,126.003049 86.2901083,118.110187 83.6005601,112.549351 C80.4846951,106.104458 72.5366249,105.968889 67.0252657,108.62806 C65.2289526,109.494932 66.7921141,112.237481 68.5779692,111.3757 C72.6584297,109.406463 77.7834585,109.427466 80.5985026,113.556882 C83.176704,117.337513 82.1413633,123.436803 78.5684227,126.084518 C75.5220726,128.342076 70.8498131,128.639307 67.96833,125.982046 C64.3326416,122.628487 66.028681,115.170333 70.2211035,113.288929 C72.0371022,112.472974 70.4690193,109.732972 68.6690152,110.540016" id="Fill-15" fill="#E36A5C"></path>
                        <path id="Fill-17" fill="#E36A5C"></path>
                    </g>
                </g>
            </g>
        </g>
    </g>
</svg>