<?xml version="1.0" encoding="UTF-8" standalone="no"?>
<svg width="99px" height="143px" viewBox="0 0 99 143" version="1.1" xmlns="http://www.w3.org/2000/svg" xmlns:xlink="http://www.w3.org/1999/xlink" xmlns:sketch="http://www.bohemiancoding.com/sketch/ns">
    <!-- Generator: Sketch 3.0.1 (7597) - http://www.bohemiancoding.com/sketch -->
    <title>Law-Bill-Icon</title>
    <description>Created with Sketch.</description>
    <defs></defs>
    <g id="Bonjour" stroke="none" stroke-width="1" fill="none" fill-rule="evenodd" sketch:type="MSPage">
        <g id="Desktop" sketch:type="MSArtboardGroup" transform="translate(-190.000000, -4643.000000)">
            <g id="San-Fransisco-Facts" sketch:type="MSLayerGroup" transform="translate(1.000000, 3858.000000)">
                <g id="The-Most-College-Deg-+-This-could-have-some-2" transform="translate(109.000000, 727.000000)" sketch:type="MSShapeGroup">
                    <g id="Law-Bill-Icon" transform="translate(80.000000, 58.000000)">
                        <path d="M79.2,0 L0,0 L0,138 L99,138 L99,19.7142857 L79.2,0" id="Fill-1" fill="#D8D8DA"></path>
                        <path d="M99,20 L79,20 L79,0 L99,20" id="Fill-2" fill="#D8D8DA"></path>
                        <path d="M15,47 L79,47 L79,52 L15,52 L15,47 Z" id="Fill-3" fill="#242C3C"></path>
                        <path d="M15,76 L74,76 L74,81 L15,81 L15,76 Z" id="Fill-4" fill="#242C3C"></path>
                        <path d="M15,57 L84,57 L84,62 L15,62 L15,57 Z" id="Fill-5" fill="#242C3C"></path>
                        <path d="M15,66 L60,66 L60,71 L15,71 L15,66 Z" id="Fill-6" fill="#242C3C"></path>
                        <path d="M61.4743939,118.814901 C61.2270872,119.341297 61.0725205,119.897753 61.0106939,120.484937 C60.9358836,120.868378 61.2672745,121.101515 61.5776444,120.956556 C63.2914796,120.156274 64.7104016,118.957188 66.2146444,117.783487 C66.0384384,117.593103 65.8622324,117.402719 65.6860264,117.212334 C65.4003872,117.84962 65.2149072,118.466866 65.0288089,119.148908 C64.9379237,119.482248 65.2278908,119.709373 65.504256,119.662612 C66.4143445,119.508968 69.7770969,117.675268 70.3230264,118.802209 C70.3836165,118.927128 70.5276726,119.015305 70.6568904,119.009293 C74.4042046,118.837614 77.9184324,117.298508 81.6311237,116.838246 C82.1201726,116.777457 82.125737,115.941771 81.6311237,116.003228 C79.8437148,116.225009 71.5805808,119.255123 70.7038786,117.638528 C69.6540618,115.701954 64.9651275,120.731435 66.3537544,117.633184 C66.5052297,117.2945 66.1676561,116.794825 65.8251364,117.062031 C64.3202753,118.235733 62.9013533,119.435487 61.1881364,120.2351 C61.3767077,120.392751 61.5665156,120.549735 61.7557052,120.706718 C61.8175319,120.119533 61.9720985,119.563077 62.2194052,119.036682 C62.4061217,118.537675 61.6586373,118.322574 61.4743939,118.814901" id="Fill-7" fill="#242C3C"></path>
                        <path d="M59,122 L84,122 L84,123 L59,123 L59,122 Z" id="Fill-8" fill="#242C3C"></path>
                        <path d="M63.6036633,116.949641 C66.2337776,115.586271 68.2039513,113.272036 71.4952928,113.826055 C72.0021478,113.910965 72.2189119,113.185922 71.7088408,113.099808 C68.1023231,112.492795 66.1083503,114.791374 63.1984366,116.29927 C62.7449686,116.534729 63.1495521,117.184497 63.6036633,116.949641" id="Fill-9" fill="#242C3C"></path>
                        <path d="M35.3654921,120.826153 C35.088284,120.394021 35.088284,119.605979 35.3654921,119.173847 L35.6679009,118.701146 C35.9862906,118.204471 36.0797177,117.625426 35.9309719,117.070355 C35.7822262,116.515898 35.4122056,116.061023 34.8879074,115.789941 L34.3894246,115.532383 C33.9333528,115.296954 33.5399755,114.614641 33.5639469,114.101369 L33.590377,113.54138 C33.616807,112.969712 33.4195037,112.433082 33.0341169,112.030455 C32.6511886,111.628444 32.1281198,111.407153 31.558952,111.407153 C31.5263754,111.407153 31.4919549,111.408382 31.458149,111.409612 L30.8988157,111.436044 C30.884064,111.436658 30.869927,111.436658 30.8551754,111.436658 C30.3437849,111.436658 29.6947123,111.050014 29.4679057,110.609891 L29.2097518,110.111372 C28.8550976,109.425985 28.1660727,109 27.4125093,109 C27.0222052,109 26.6368184,109.114948 26.2981451,109.331322 L25.826707,109.633752 C25.6214132,109.765912 25.3202337,109.84152 25.0006147,109.84152 C24.6797663,109.84152 24.3785868,109.765912 24.173293,109.633752 L23.7018549,109.331322 C23.3631816,109.114948 22.9790241,109 22.5874907,109 C21.8339273,109 21.1449024,109.425985 20.7902482,110.111372 L20.5333236,110.609891 C20.3052877,111.050014 19.6562151,111.436658 19.1448246,111.436658 C19.130073,111.436658 19.115936,111.436658 19.1011843,111.436044 L18.541851,111.409612 C18.5080451,111.408382 18.4736246,111.407153 18.441048,111.407153 C17.8718802,111.407153 17.3488114,111.628444 16.9658831,112.030455 C16.5817256,112.433082 16.383193,112.969712 16.4108523,113.540766 L16.4360531,114.101369 C16.4606392,114.614641 16.0666472,115.29634 15.6105754,115.532383 L15.1120926,115.789941 C14.5877944,116.061023 14.2177738,116.515898 14.0690281,117.070355 C13.9202823,117.625426 14.0137094,118.204471 14.3320991,118.701146 L14.6345079,119.173847 C14.911716,119.605979 14.911716,120.394021 14.6345079,120.826153 L14.3320991,121.298854 C14.0137094,121.794915 13.9202823,122.374574 14.0690281,122.929645 C14.2177738,123.484102 14.5877944,123.938977 15.1120926,124.210059 L15.6105754,124.467617 C16.0666472,124.703046 16.4606392,125.385359 16.4360531,125.898631 L16.4108523,126.45862 C16.383193,127.030902 16.5817256,127.566918 16.9658831,127.969545 C17.3488114,128.371556 17.8718802,128.592847 18.441048,128.592847 C18.4736246,128.592847 18.5080451,128.591618 18.541851,128.590388 L19.1011843,128.563956 C19.115936,128.563342 19.130073,128.562727 19.1448246,128.562727 C19.6562151,128.562727 20.3052877,128.949986 20.5333236,129.390109 L20.7902482,129.888628 C21.1449024,130.574015 21.8339273,131 22.5874907,131 C22.9790241,131 23.3631816,130.885666 23.7018549,130.668678 L24.173293,130.366248 C24.3785868,130.234088 24.6797663,130.15848 25.0006147,130.15848 C25.3202337,130.15848 25.6214132,130.234088 25.826707,130.366248 L26.2981451,130.668678 C26.6368184,130.885666 27.0222052,131 27.4125093,131 C28.1660727,131 28.8550976,130.574015 29.2097518,129.888628 L29.4679057,129.390109 C29.6947123,128.949371 30.3437849,128.562727 30.8551754,128.562727 C30.869927,128.562727 30.884064,128.563342 30.8988157,128.563956 L31.458149,128.590388 C31.4919549,128.591618 31.5263754,128.592847 31.558952,128.592847 C32.1281198,128.592847 32.6511886,128.371556 33.0341169,127.969545 C33.4195037,127.566918 33.616807,127.030902 33.590377,126.45862 L33.5639469,125.898631 C33.5399755,125.385359 33.9333528,124.703046 34.3894246,124.467617 L34.8879074,124.210059 C35.4122056,123.938977 35.7822262,123.484102 35.9309719,122.929645 C36.0797177,122.374574 35.9862906,121.795529 35.6679009,121.298854 L35.3654921,120.826153" id="Fill-10" fill="#DF5444"></path>
                        <path d="M28.8499206,129.266501 L28.5997882,129.754383 C28.256154,130.425146 27.5885389,130.842042 26.8583907,130.842042 C26.4802144,130.842042 26.1068025,130.730148 25.7786527,130.51779 L25.3218634,130.221812 C25.1229487,130.092472 24.8311276,130.018477 24.5214399,130.018477 C24.2105611,130.018477 23.9187401,130.092472 23.7198253,130.221812 L23.263036,130.51779 C22.9348862,130.730148 22.5626654,130.842042 22.183298,130.842042 C21.4531498,130.842042 20.7855347,130.425146 20.4419005,129.754383 L20.1929592,129.266501 C20.145315,129.174459 20.0792086,129.084823 20,129 L20,143 L24.5214399,139.182365 L29,141.833534 L29,129.046923 C28.9392536,129.117308 28.888036,129.191303 28.8499206,129.266501" id="Fill-11" fill="#242C3C"></path>
                        <path d="M32,120.5 C32,124.642063 28.6420626,128 24.5006273,128 C20.3579374,128 17,124.642063 17,120.5 C17,116.357937 20.3579374,113 24.5006273,113 C28.6420626,113 32,116.357937 32,120.5" id="Fill-12" fill="#FFFFFF"></path>
                    </g>
                </g>
            </g>
        </g>
    </g>
</svg>