<?xml version="1.0" encoding="UTF-8" standalone="no"?>
<svg width="114px" height="93px" viewBox="0 0 114 93" version="1.1" xmlns="http://www.w3.org/2000/svg" xmlns:xlink="http://www.w3.org/1999/xlink" xmlns:sketch="http://www.bohemiancoding.com/sketch/ns">
    <!-- Generator: Sketch 3.0.1 (7597) - http://www.bohemiancoding.com/sketch -->
    <title>multilingual-icon</title>
    <description>Created with Sketch.</description>
    <defs></defs>
    <g id="Bonjour" stroke="none" stroke-width="1" fill="none" fill-rule="evenodd" sketch:type="MSPage">
        <g id="Desktop" sketch:type="MSArtboardGroup" transform="translate(-703.000000, -6036.000000)">
            <g id="Manhattan-Facts" sketch:type="MSLayerGroup" transform="translate(0.000000, 5542.000000)">
                <g id="The-Orginal-Starbuck-+-Did-you-know-that-on-+-Coffe-Cup-Icon" transform="translate(118.000000, 411.000000)" sketch:type="MSShapeGroup">
                    <g id="multilingual-icon" transform="translate(585.000000, 83.000000)">
                        <path d="M105.555595,0 L8.44440535,0 C3.80051018,0 0,3.80454545 0,8.45454545 L0,24.6835739 L0,41.5926648 L0,67.6363636 C0,72.2863636 3.80051018,76.0909091 8.44440535,76.0909091 L67.5557706,76.0909091 L84.4445813,93 L84.4445813,76.0909091 L105.555595,76.0909091 C110.19949,76.0909091 114,72.2863636 114,67.6363636 L114,41.5926648 L114,24.6835739 L114,8.45454545 C114,3.80454545 110.19949,0 105.555595,0" id="Fill-1" fill="#242C3C"></path>
                        <path d="M23,24 L91,24 L91,28 L23,28 L23,24 Z" id="Fill-2" fill="#EFEEEE"></path>
                        <path d="M23,41 L74,41 L74,45 L23,45 L23,41 Z" id="Fill-3" fill="#EFEEEE"></path>
                        <path d="M23,32 L91,32 L91,36 L23,36 L23,32 Z" id="Fill-4" fill="#EFEEEE"></path>
                    </g>
                </g>
            </g>
        </g>
    </g>
</svg>