<?xml version="1.0" encoding="UTF-8" standalone="no"?>
<svg width="29px" height="22px" viewBox="0 0 29 22" version="1.1" xmlns="http://www.w3.org/2000/svg" xmlns:xlink="http://www.w3.org/1999/xlink" xmlns:sketch="http://www.bohemiancoding.com/sketch/ns">
    <!-- Generator: Sketch 3.0.1 (7597) - http://www.bohemiancoding.com/sketch -->
    <title>Twitter_Button</title>
    <description>Created with Sketch.</description>
    <defs></defs>
    <g id="Bonjour" stroke="none" stroke-width="1" fill="none" fill-rule="evenodd" sketch:type="MSPage">
        <g id="Desktop" sketch:type="MSArtboardGroup" transform="translate(-881.000000, -854.000000)" fill="#000000">
            <g id="Nav" sketch:type="MSLayerGroup" transform="translate(0.000000, 829.000000)">
                <path d="M906.582413,28.478547 C907.81113,27.7911941 908.754261,26.7027873 909.199033,25.4060561 C908.048804,26.0422106 906.775641,26.5044672 905.420522,26.7536914 C904.335228,25.6741119 902.788772,25 901.077772,25 C897.791946,25 895.128043,27.4863578 895.128043,30.5535523 C895.128043,30.9887385 895.18037,31.4127434 895.28187,31.8190937 C890.337685,31.5878183 885.95238,29.3765782 883.018652,26.0163171 C882.506424,26.8366681 882.212641,27.7906056 882.212641,28.808394 C882.212641,30.7351006 883.262946,32.4346512 884.859522,33.4309598 C883.88487,33.4024181 882.966957,33.1528996 882.164728,32.7368393 C882.164098,32.7597903 882.164098,32.7827413 882.164098,32.8062808 C882.164098,35.4974321 884.215533,37.7422159 886.936804,38.25214 C886.43813,38.3792532 885.912348,38.4472234 885.369228,38.4472234 C884.986239,38.4472234 884.613652,38.4125027 884.249891,38.3474749 C885.007043,40.5537128 887.205054,42.159694 889.80812,42.204419 C887.7715,43.694174 885.206576,44.5822009 882.419109,44.5822009 C881.938717,44.5822009 881.465261,44.555719 881,44.5036379 C883.63238,46.0801947 886.759337,47 890.120185,47 C901.063587,47 907.048304,38.5366734 907.048304,31.1970629 C907.048304,30.9569602 907.042946,30.717446 907.031283,30.4785202 C908.193489,29.6961267 909.20187,28.7180612 910,27.6040552 C908.932359,28.046009 907.785913,28.3440777 906.582413,28.478547 Z" id="Twitter_Button" sketch:type="MSShapeGroup"></path>
            </g>
        </g>
    </g>
</svg>